<svg width="120" height="120" viewBox="0 0 120 120" fill="none" xmlns="http://www.w3.org/2000/svg">
  <!-- Background -->
  <rect width="120" height="120" fill="#F8FAFC" rx="12"/>
  
  <!-- Location pin -->
  <g transform="translate(35, 25)">
    <!-- Pin shadow -->
    <ellipse cx="25" cy="55" rx="6" ry="2" fill="#E2E8F0" opacity="0.8"/>
    
    <!-- Pin body -->
    <path d="M25 8 C25 8, 37 8, 37 20 C37 32, 25 45, 25 45 C25 45, 13 32, 13 20 C13 8, 25 8, 25 8 Z" fill="#8B5CF6"/>
    
    <!-- Pin highlight -->
    <path d="M25 8 C25 8, 33 8, 33 16 C33 24, 25 35, 25 35 C25 35, 17 24, 17 16 C17 8, 25 8, 25 8 Z" fill="#A78BFA" opacity="0.6"/>
    
    <!-- Pin hole -->
    <circle cx="25" cy="28" r="2.5" fill="#F1F5F9"/>
  </g>
  
  <!-- Campus text -->
  <text x="60" y="95" text-anchor="middle" font-family="Arial, sans-serif" font-size="10" font-weight="600" fill="#64748B">CAMPUS</text>
  <text x="60" y="108" text-anchor="middle" font-family="Arial, sans-serif" font-size="10" font-weight="600" fill="#64748B">PICKUP</text>
</svg> 